HIERARCHY
ROOT Hips
{
	OFFSET -0.001795 -0.223333 0.028219
	CHANNELS 6 Xposition Yposition Zposition Zrotation Yrotation Xrotation 
	JOINT LeftUpLeg
	{
		OFFSET 0.069520 -0.091406 -0.006815
		CHANNELS 3 Zrotation Yrotation Xrotation
		JOINT LeftLeg
		{
			OFFSET 0.034277 -0.375199 -0.004496
			CHANNELS 3 Zrotation Yrotation Xrotation
			JOINT LeftFoot
			{
				OFFSET -0.013596 -0.397961 -0.043693
				CHANNELS 3 Zrotation Yrotation Xrotation
				JOINT LeftToe
				{
					OFFSET 0.026358 -0.055791 0.119288
					CHANNELS 3 Zrotation Yrotation Xrotation
					End Site
					{
						OFFSET 0.000000 0.000000 0.000000
					}
				}
			}
		}
	}
	JOINT RightUpLeg
	{
		OFFSET -0.067670 -0.090522 -0.004320
		CHANNELS 3 Zrotation Yrotation Xrotation
		JOINT RightLeg
		{
			OFFSET -0.038290 -0.382569 -0.008850
			CHANNELS 3 Zrotation Yrotation Xrotation
			JOINT RightFoot
			{
				OFFSET 0.015774 -0.398415 -0.042312
				CHANNELS 3 Zrotation Yrotation Xrotation
				JOINT RightToe
				{
					OFFSET -0.025372 -0.048144 0.123348
					CHANNELS 3 Zrotation Yrotation Xrotation
					End Site
					{
						OFFSET 0.000000 0.000000 0.000000
					}
				}
			}
		}
	}
	JOINT Spine
	{
		OFFSET -0.002533 0.108963 -0.026696
		CHANNELS 3 Zrotation Yrotation Xrotation
		JOINT Spine1
		{
			OFFSET 0.005487 0.135180 0.001092
			CHANNELS 3 Zrotation Yrotation Xrotation
			JOINT Spine2
			{
				OFFSET 0.001457 0.052922 0.025425
				CHANNELS 3 Zrotation Yrotation Xrotation
				JOINT Neck
				{
					OFFSET -0.002778 0.213870 -0.042857
					CHANNELS 3 Zrotation Yrotation Xrotation
					JOINT Head
					{
						OFFSET 0.005152 0.064970 0.051349
						CHANNELS 3 Zrotation Yrotation Xrotation
						End Site
						{
							OFFSET 0.000000 0.000000 0.000000
						}
					}
				}
				JOINT LeftShoulder
				{
					OFFSET 0.078845 0.121749 -0.034090
					CHANNELS 3 Zrotation Yrotation Xrotation
					JOINT LeftArm
					{
						OFFSET 0.090977 0.030469 -0.008868
						CHANNELS 3 Zrotation Yrotation Xrotation
						JOINT LeftForeArm
						{
							OFFSET 0.259612 -0.012772 -0.027456
							CHANNELS 3 Zrotation Yrotation Xrotation
							JOINT LeftHand
							{
								OFFSET 0.249234 0.008986 -0.001171
								CHANNELS 3 Zrotation Yrotation Xrotation
								End Site
								{
									OFFSET 0.000000 0.000000 0.000000
								}
							}
						}
					}
				}
				JOINT RightShoulder
				{
					OFFSET -0.081759 0.118833 -0.038615
					CHANNELS 3 Zrotation Yrotation Xrotation
					JOINT RightArm
					{
						OFFSET -0.096012 0.032551 -0.009143
						CHANNELS 3 Zrotation Yrotation Xrotation
						JOINT RightForeArm
						{
							OFFSET -0.253742 -0.013329 -0.021401
							CHANNELS 3 Zrotation Yrotation Xrotation
							JOINT RightHand
							{
								OFFSET -0.255298 0.007772 -0.005559
								CHANNELS 3 Zrotation Yrotation Xrotation
								End Site
								{
									OFFSET 0.000000 0.000000 0.000000
								}
							}
						}
					}
				}
			}
		}
	}
}
MOTION
Frames: 11
Frame Time: 0.050000
0.000000 0.955458 0.000000 -1.082716 -2.975239 2.858304 4.114965 0.163119 3.669011 1.013686 0.136412 -5.789820 -30.036223 -31.456736 27.639242 0.000000 0.000000 0.000000 -2.263379 0.055452 0.316112 1.647208 -0.261425 -4.032248 -8.124269 -20.210274 15.241645 0.000000 0.000000 0.000000 6.758486 -0.072462 -0.338731 -6.367865 2.081705 -23.964960 -1.109548 5.623216 28.343549 8.617701 -4.433722 -16.901954 0.000000 0.000000 0.000000 -8.236664 0.441533 -0.915956 -55.834813 -0.310559 -9.165719 -4.271585 -30.596402 2.633662 0.000000 0.000000 0.000000 16.080839 -10.748129 -5.799189 61.865126 -0.171902 -8.603680 8.734145 27.648821 3.752420 0.000000 0.000000 0.000000 
-0.000050 0.954437 -0.000123 -1.273156 -3.536142 3.309545 4.704760 0.154404 3.917224 0.212914 0.230121 -6.887527 -29.653441 -31.154841 27.418503 0.000000 0.000000 0.000000 -2.404217 0.137367 -0.613101 2.121308 -0.273797 -3.315222 -7.819491 -19.746604 14.620301 0.000000 0.000000 0.000000 7.242065 -0.062076 -0.557502 -6.756531 2.158237 -24.032727 -1.296341 6.148862 28.064981 8.829141 -4.609376 -16.515063 0.000000 0.000000 0.000000 -7.794583 1.230877 -1.228261 -56.079097 -0.219765 -9.237080 -3.278442 -30.845303 2.385505 0.000000 0.000000 0.000000 16.249988 -11.379634 -6.154448 62.253349 -1.326868 -9.176271 8.494248 28.825376 3.902686 0.000000 0.000000 0.000000 
-0.000158 0.953703 -0.000355 -0.967843 -3.325827 3.142567 4.747304 0.128144 3.482863 -0.379510 0.229569 -5.925984 -29.854889 -31.400122 27.443980 0.000000 0.000000 0.000000 -2.581052 0.114431 -0.254316 1.841589 -0.266982 -3.817927 -8.005508 -20.039918 14.874691 0.000000 0.000000 0.000000 7.256602 -0.027395 -0.856277 -6.833387 2.173381 -24.328566 -1.518834 5.562704 29.153699 8.615549 -4.488659 -16.914712 0.000000 0.000000 0.000000 -8.043744 1.252200 -1.197616 -56.379425 0.304242 -9.605878 -2.305852 -31.310489 2.228117 0.000000 0.000000 0.000000 16.192962 -11.023145 -6.011599 61.930530 -0.649862 -8.947498 7.947605 27.941466 3.611843 0.000000 0.000000 0.000000 
-0.000347 0.954160 -0.000493 -0.985446 -3.565513 3.254502 4.868985 0.128974 3.548809 -0.597166 0.252591 -6.200604 -29.726540 -31.125891 27.564032 0.000000 0.000000 0.000000 -2.763648 0.124045 -0.268771 2.278746 -0.294040 -3.872057 -7.837207 -19.770770 14.521035 0.000000 0.000000 0.000000 7.465546 -0.001951 -1.114638 -7.073264 2.227139 -24.417075 -1.599894 5.649841 29.558554 8.268996 -4.405358 -16.048250 0.000000 0.000000 0.000000 -7.318470 1.687311 -1.299300 -57.597217 0.530517 -9.943910 -1.445917 -31.692094 2.059183 0.000000 0.000000 0.000000 15.778036 -11.478011 -6.209777 62.216133 -0.567443 -8.951262 8.535980 27.399564 3.670502 0.000000 0.000000 0.000000 
-0.000574 0.954356 -0.000646 -0.904526 -3.291736 3.113168 4.904708 0.122893 3.504693 -0.720611 0.252275 -5.965379 -29.967406 -31.208551 27.824421 0.000000 0.000000 0.000000 -2.709143 0.110207 -0.139116 2.127766 -0.280092 -3.547914 -7.870501 -19.787553 14.093709 0.000000 0.000000 0.000000 7.156262 -0.016410 -0.947998 -6.387219 2.082790 -23.863291 -1.984824 5.499149 28.955316 7.883842 -4.202035 -15.420551 0.000000 0.000000 0.000000 -7.395571 1.641519 -1.301024 -57.835623 0.698575 -10.001525 -0.777880 -31.567031 1.848426 0.000000 0.000000 0.000000 15.386804 -11.197159 -6.004633 62.192446 -0.528869 -8.844206 7.745077 27.206129 3.439706 0.000000 0.000000 0.000000 
-0.000746 0.954656 -0.000782 -1.013006 -3.059575 3.095999 5.091013 0.110532 3.475934 -0.763613 0.254101 -5.958532 -30.146538 -31.256263 28.029114 0.000000 0.000000 0.000000 -2.699372 0.104230 -0.082611 2.329066 -0.288984 -3.223952 -7.694394 -19.454927 13.562908 0.000000 0.000000 0.000000 7.223452 -0.018833 -0.933872 -6.534564 2.121827 -23.878643 -1.783699 5.144342 29.344392 7.515436 -3.901858 -15.848159 0.000000 0.000000 0.000000 -7.426738 1.793116 -1.344154 -57.849756 0.425044 -9.898794 -0.320189 -30.800899 1.698693 0.000000 0.000000 0.000000 15.057023 -11.177433 -5.978358 62.243418 -0.403204 -8.820494 7.403704 26.650365 3.265401 0.000000 0.000000 0.000000 
-0.000820 0.954674 -0.000931 -1.029334 -2.925524 3.001686 5.232231 0.113701 3.674229 -0.936877 0.270865 -6.180899 -30.288484 -31.260228 28.232391 0.000000 0.000000 0.000000 -2.677003 0.097751 -0.023381 2.339434 -0.283415 -2.830941 -7.578450 -19.221177 12.979773 0.000000 0.000000 0.000000 7.203370 -0.031784 -0.796086 -6.358566 2.087833 -23.678354 -1.979548 4.984913 29.238819 7.780392 -4.050679 -16.163088 0.000000 0.000000 0.000000 -7.614467 1.587260 -1.268498 -58.024850 0.680867 -10.037173 0.025894 -30.483450 1.590917 0.000000 0.000000 0.000000 15.034609 -10.812955 -5.793543 62.277875 -0.380135 -8.810715 6.961423 26.678765 3.161374 0.000000 0.000000 0.000000 
-0.000781 0.954671 -0.001209 -1.106372 -2.863830 2.889021 5.254493 0.113395 3.677761 -0.813072 0.258399 -6.013111 -30.315413 -31.358708 28.161564 0.000000 0.000000 0.000000 -2.642956 0.101439 -0.103011 2.457566 -0.284917 -2.389188 -7.594123 -19.233509 12.742373 0.000000 0.000000 0.000000 7.388247 -0.055894 -0.560196 -6.396607 2.099337 -23.659645 -1.999350 4.964170 29.334907 7.901819 -4.082132 -16.500578 0.000000 0.000000 0.000000 -7.746577 1.126184 -1.084009 -57.893760 0.874578 -10.117838 -0.247969 -30.356929 1.647465 0.000000 0.000000 0.000000 15.033170 -10.781170 -5.769080 62.396239 -0.318952 -8.805054 6.683328 26.527917 3.082471 0.000000 0.000000 0.000000 
-0.000633 0.954756 -0.001540 -1.137132 -2.911827 2.962417 5.280445 0.112863 3.693832 -0.828365 0.264884 -6.202753 -30.276275 -31.288714 28.180817 0.000000 0.000000 0.000000 -2.778898 0.115165 -0.213624 2.514592 -0.289589 -2.426723 -7.326781 -18.787809 12.907298 0.000000 0.000000 0.000000 7.460067 -0.060619 -0.535294 -6.398673 2.100164 -23.601877 -2.116105 4.912456 29.287042 7.862971 -4.035218 -16.670581 0.000000 0.000000 0.000000 -7.761480 1.053205 -1.045481 -58.423802 0.891198 -10.206580 -0.154693 -30.016052 1.615467 0.000000 0.000000 0.000000 15.106632 -10.575927 -5.685861 62.509274 -0.125077 -8.721488 6.484895 26.498252 3.028220 0.000000 0.000000 0.000000 
-0.000507 0.954924 -0.001830 -1.154295 -2.908594 2.990437 5.265250 0.114520 3.721192 -0.782224 0.266184 -6.339855 -30.279558 -31.243271 28.235596 0.000000 0.000000 0.000000 -2.848725 0.127856 -0.351372 2.421447 -0.282206 -2.410164 -7.119044 -18.455266 13.271651 0.000000 0.000000 0.000000 7.566609 -0.055468 -0.596063 -6.488596 2.122182 -23.609266 -2.109327 4.915511 29.472854 7.874776 -4.008255 -16.916337 0.000000 0.000000 0.000000 -7.771504 0.859952 -0.960539 -58.589134 1.019109 -10.314143 -0.189544 -29.976871 1.626377 0.000000 0.000000 0.000000 14.969658 -10.445026 -5.594001 62.702061 -0.001185 -8.693516 6.535411 26.654765 3.065973 0.000000 0.000000 0.000000 
-0.000365 0.954966 -0.002034 -1.114109 -2.873652 3.013704 5.255669 0.120394 3.846781 -0.851095 0.279115 -6.645447 -30.332414 -31.182462 28.381422 0.000000 0.000000 0.000000 -2.895212 0.127785 -0.329121 2.330640 -0.279045 -2.607987 -7.074875 -18.393124 13.525345 0.000000 0.000000 0.000000 7.582529 -0.067729 -0.491731 -6.448091 2.107875 -23.765718 -2.199012 4.938691 29.488400 8.033890 -4.099506 -17.008849 0.000000 0.000000 0.000000 -7.734623 0.815489 -0.941821 -58.640054 1.193806 -10.412945 -0.612621 -29.851651 1.724795 0.000000 0.000000 0.000000 14.886968 -10.542813 -5.628357 62.887153 0.099393 -8.652381 6.824843 26.443003 3.103565 0.000000 0.000000 0.000000 
